<svg xmlns="http://www.w3.org/2000/svg" xmlns:xlink="http://www.w3.org/1999/xlink" width="154.806" height="41.334" viewBox="0 0 154.806 41.334">
  <defs>
    <clipPath id="clip-path">
      <rect id="Rectangle_37" data-name="Rectangle 37" width="154.806" height="41.334" fill="none"/>
    </clipPath>
  </defs>
  <g id="logo-main" transform="translate(0 0)">
    <g id="Group_23" data-name="Group 23" transform="translate(0 0)" clip-path="url(#clip-path)">
      <path id="Path_35" data-name="Path 35" d="M30.417,6.6a10.979,10.979,0,0,0-3.528-3.9A14.447,14.447,0,0,0,21.917.614,26.2,26.2,0,0,0,16.251,0H.931A.931.931,0,0,0,0,.93V29a2.166,2.166,0,0,0,.65,1.547L11.458,41.128a.713.713,0,0,0,1.212-.509V13.794a2.165,2.165,0,0,0-.788-1.67L6.839,7.972a.45.45,0,0,1,.286-.8l10.533-.01a1.068,1.068,0,0,1,1.069,1.068V24.469a.932.932,0,0,0,1.062.923A22.436,22.436,0,0,0,22,24.962a14.325,14.325,0,0,0,4.971-2.244,11.482,11.482,0,0,0,3.475-4.01,12.589,12.589,0,0,0,1.309-5.986A12.608,12.608,0,0,0,30.417,6.6" transform="translate(0 0)" fill="#f78857"/>
      <path id="Path_36" data-name="Path 36" d="M41.454,10.889h4.189v3.962l-.424-.424a7.266,7.266,0,0,1,2.264-2.8,4.87,4.87,0,0,1,2.857-.962,4.54,4.54,0,0,1,2.858.919,5.786,5.786,0,0,1,1.826,2.589,10.85,10.85,0,0,1,.636,3.877,11.052,11.052,0,0,1-.636,3.919,5.6,5.6,0,0,1-1.853,2.589,4.707,4.707,0,0,1-2.887.905,4.362,4.362,0,0,1-1.98-.467,6.088,6.088,0,0,1-1.727-1.316A9.777,9.777,0,0,1,45.162,21.7l.566-.311v8.574H41.454Zm8.787,10.6a2.784,2.784,0,0,0,.807-1.3,7.08,7.08,0,0,0,.283-2.165,5.435,5.435,0,0,0-.595-2.843,1.8,1.8,0,0,0-1.584-.948,3.042,3.042,0,0,0-1.514.467,4.085,4.085,0,0,0-1.372,1.329A3.548,3.548,0,0,0,45.7,18.02a3.885,3.885,0,0,0,.538,2.052,4,4,0,0,0,1.316,1.373,2.838,2.838,0,0,0,1.485.48,1.819,1.819,0,0,0,1.2-.438" transform="translate(2.956 0.76)" fill="#1e3454"/>
      <path id="Path_37" data-name="Path 37" d="M69.723,24.557a6.32,6.32,0,0,1-2.519-2.6,8.151,8.151,0,0,1-.876-3.849,8.3,8.3,0,0,1,.876-3.89A6.3,6.3,0,0,1,69.723,11.6a8.4,8.4,0,0,1,7.7,0,6.3,6.3,0,0,1,2.519,2.618,8.3,8.3,0,0,1,.877,3.89,8.152,8.152,0,0,1-.877,3.849,6.32,6.32,0,0,1-2.519,2.6,8.4,8.4,0,0,1-7.7,0m5.4-2.915a3.04,3.04,0,0,0,1-1.386,5.972,5.972,0,0,0,.355-2.179,4.98,4.98,0,0,0-.779-2.971,2.5,2.5,0,0,0-2.136-1.076A2.612,2.612,0,0,0,72,14.511a2.912,2.912,0,0,0-1,1.4,6.223,6.223,0,0,0-.34,2.164,5.04,5.04,0,0,0,.764,2.986,2.5,2.5,0,0,0,2.15,1.061,2.541,2.541,0,0,0,1.557-.481" transform="translate(4.73 0.76)" fill="#1e3454"/>
      <path id="Path_38" data-name="Path 38" d="M79.764,11.233h10.3V14.4h-10.3Zm3.947,13.228a3.714,3.714,0,0,1-1.117-2.872V7.837l4.272-1.981V20.514a1.574,1.574,0,0,0,.354,1.146,1.714,1.714,0,0,0,1.231.354h2.774v3.481H87.036a4.742,4.742,0,0,1-3.325-1.033" transform="translate(5.688 0.418)" fill="#1e3454"/>
      <path id="Path_39" data-name="Path 39" d="M94.068,24.557a6.32,6.32,0,0,1-2.519-2.6,8.152,8.152,0,0,1-.876-3.849,8.3,8.3,0,0,1,.876-3.89A6.3,6.3,0,0,1,94.068,11.6a8.4,8.4,0,0,1,7.7,0,6.3,6.3,0,0,1,2.519,2.618,8.3,8.3,0,0,1,.877,3.89,8.152,8.152,0,0,1-.877,3.849,6.32,6.32,0,0,1-2.519,2.6,8.4,8.4,0,0,1-7.7,0m5.4-2.915a3.04,3.04,0,0,0,1-1.386,5.972,5.972,0,0,0,.355-2.179,4.98,4.98,0,0,0-.779-2.971,2.5,2.5,0,0,0-2.136-1.076,2.612,2.612,0,0,0-1.571.481,2.912,2.912,0,0,0-1,1.4A6.223,6.223,0,0,0,95,18.076a5.04,5.04,0,0,0,.764,2.986,2.5,2.5,0,0,0,2.15,1.061,2.541,2.541,0,0,0,1.557-.481" transform="translate(6.465 0.76)" fill="#1e3454"/>
      <path id="Path_40" data-name="Path 40" d="M108.5,24.557a6.245,6.245,0,0,1-2.49-2.6,8.25,8.25,0,0,1-.863-3.848,8.3,8.3,0,0,1,.877-3.891,6.317,6.317,0,0,1,2.5-2.617,7.51,7.51,0,0,1,3.805-.934,8.164,8.164,0,0,1,3.509.707,5.737,5.737,0,0,1,2.377,2.024,6.907,6.907,0,0,1,1.076,3.127h-4.33a3.089,3.089,0,0,0-.848-1.826,2.7,2.7,0,0,0-3.31-.184,2.964,2.964,0,0,0-.991,1.386,6.231,6.231,0,0,0-.34,2.179,5.046,5.046,0,0,0,.764,2.986,2.443,2.443,0,0,0,2.094,1.061,2.324,2.324,0,0,0,1.8-.721,3.342,3.342,0,0,0,.807-1.938h4.272a7.023,7.023,0,0,1-1.047,3.183,5.791,5.791,0,0,1-2.377,2.108,7.821,7.821,0,0,1-3.481.735,7.51,7.51,0,0,1-3.805-.933" transform="translate(7.498 0.76)" fill="#1e3454"/>
      <path id="Path_41" data-name="Path 41" d="M120.621,24.239a4.22,4.22,0,0,1-1.343-3.269,3.94,3.94,0,0,1,1.428-3.282,6.747,6.747,0,0,1,4.118-1.188l3.707-.085V16.1a2.316,2.316,0,0,0-.636-1.8,2.532,2.532,0,0,0-1.769-.581,2.919,2.919,0,0,0-1.8.467,1.7,1.7,0,0,0-.694,1.174h-4.216a4.741,4.741,0,0,1,1.061-2.476,6,6,0,0,1,2.377-1.712,8.687,8.687,0,0,1,3.381-.622,7.627,7.627,0,0,1,3.467.722,4.963,4.963,0,0,1,2.165,2.052,6.4,6.4,0,0,1,.735,3.141v4.357a17.951,17.951,0,0,0,.184,2.462,7.1,7.1,0,0,0,.438,1.867h-4.1l-.029-.141a10.214,10.214,0,0,1-.24-1.386,14.085,14.085,0,0,1-.1-1.641l.622.085a5.176,5.176,0,0,1-1.9,2.42,5.573,5.573,0,0,1-3.338.976,5.013,5.013,0,0,1-3.524-1.231m6.82-2.462a1.947,1.947,0,0,0,1.09-1.4v-1.16l-3.141.085a2.961,2.961,0,0,0-1.486.41,1.193,1.193,0,0,0-.523,1.061,1.324,1.324,0,0,0,.537,1.132,2.432,2.432,0,0,0,1.472.4,4.173,4.173,0,0,0,2.052-.524" transform="translate(8.505 0.753)" fill="#1e3454"/>
      <rect id="Rectangle_35" data-name="Rectangle 35" width="4.272" height="19.807" transform="translate(143.686 6.103)" fill="#1e3454"/>
      <rect id="Rectangle_36" data-name="Rectangle 36" width="4.272" height="19.807" transform="translate(150.532 6.103)" fill="#1e3454"/>
      <path id="Path_42" data-name="Path 42" d="M65.659,15.319l1.67-3.754a4.437,4.437,0,0,0-2.8-.929,3.529,3.529,0,0,0-2.674,1.2,6.533,6.533,0,0,0-1.231,1.927V10.891H56.435V25.152h4.272V17.8a4.958,4.958,0,0,1,.284-1.783,2.546,2.546,0,0,1,.764-1.118,1.994,1.994,0,0,1,1.076-.435,3.942,3.942,0,0,1,1.217.132,11,11,0,0,1,1.611.727" transform="translate(4.024 0.759)" fill="#1e3454"/>
    </g>
  </g>
</svg>
